<svg id="Capa_1" enable-background="new 0 0 512 512" height="512" viewBox="0 0 512 512" width="512" xmlns="http://www.w3.org/2000/svg"><g><path d="m512 256c0 135.31-109.69 245-245 245s-245-109.69-245-245 109.69-245 245-245 245 109.69 245 245z" fill="#465a61"/><path d="m451.056 250.889c0 110.457-89.543 200-200 200s-200-89.543-200-200 89.543-200 200-200 200 89.543 200 200z" fill="#596c76"/><path d="m241.844 443.634 27.667-27.667c2.929-2.929 7.678-2.929 10.607 0 2.929 2.929 2.929 7.678 0 10.607l-27.667 27.667c-2.929 2.929-7.678 2.929-10.607 0-2.929-2.929-2.929-7.678 0-10.607zm56.226 29.212c4.142 0 7.5-3.358 7.5-7.5v-28.915c0-4.142-3.358-7.5-7.5-7.5-4.142 0-7.5 3.358-7.5 7.5v28.915c0 4.142 3.358 7.5 7.5 7.5zm-38.416-67.331h-28.915c-4.142 0-7.5-3.358-7.5-7.5 0-4.142 3.358-7.5 7.5-7.5h28.915c4.142 0 7.5 3.358 7.5 7.5 0 4.142-3.358 7.5-7.5 7.5z" fill="#8d9ca8"/><path d="m45.214 369.422h-16.007c-17.432 0-30.981-15.173-29.017-32.494l31.656-279.162c1.932-17.042 18.066-28.757 34.869-25.32l24.26 4.962c-7.081 4.913-12.131 12.73-13.188 22.05l-33.723 297.39c-.497 4.384-.052 8.634 1.15 12.574z" fill="#ffb509"/><path d="m463.751 137.492v202.727c0 16.128-13.075 29.203-29.203 29.203h-49.808v85.884c0 4.455-5.386 6.685-8.536 3.536l-89.419-89.419h-241.96c-2.979 0-5.78-1.489-7.389-3.996-3.571-5.561-5.343-12.351-4.532-19.501l32.43-285.994c.849-7.483 4.372-13.961 9.476-18.644 4.076-3.739 9.757-5.19 15.176-4.082l350.415 71.676c13.591 2.78 23.35 14.738 23.35 28.61z" fill="#ffc143"/><path d="m290.958 180.555-21.635-20.872 18.691-17.181c4.426-4.067 7.002-9.614 7.256-15.619.253-6.005-1.849-11.749-5.913-16.17-4.066-4.427-9.613-7.004-15.62-7.258-6.001-.245-11.751 1.85-16.174 5.915l-4.2 3.861c-3.968-6.417-11.068-10.701-19.151-10.701-8.408 0-15.749 4.639-19.61 11.489-5.547-4.166-24.425-16.36-47.539-9.406-15 4.519-25.643 16.552-27.773 31.4-.588 4.094-.494 8.145.219 12.024l-11.273-29.872c-.068-.185-.141-.369-.215-.554-.018-.045-.036-.091-.055-.136-3.735-9.08-12.493-14.946-22.335-14.946-9.828.011-18.584 5.894-22.283 14.935-.08.194-.158.392-.225.567l-14.402 37.814c-.01.024-.019.049-.027.073l-12.5 32.817c-4.416 11.593 1.423 24.618 13.015 29.035h.001c.71.271 1.432.496 2.16.692-1.757 2.632-3.029 5.632-3.655 8.888-.011.056-.021.111-.031.168l-6.528 36.171-.006.029-6.071 33.64c-2.202 12.207 5.938 23.932 18.152 26.139 1.317.237 2.663.357 3.999.357 7.443 0 14.146-3.635 18.263-9.359 4.454 6.121 11.638 9.918 19.501 9.918h.12c7.854-.039 14.994-3.849 19.417-9.959 4.122 5.744 10.848 9.4 18.28 9.4 1.429 0 2.862-.137 4.232-.401 3.913-.748 7.463-2.493 10.405-5.021 4.013 3.709 9.373 5.981 15.256 5.981h29.942c12.406 0 22.5-10.094 22.5-22.5 0-7.733-3.922-14.568-9.881-18.62 4.701-4.127 7.673-10.178 7.673-16.91s-2.973-12.784-7.674-16.911c5.96-4.052 9.882-10.887 9.882-18.62 0-4.296-1.212-8.314-3.31-11.733.781.083 1.574.126 2.376.126 8.541 0 15.986-4.784 19.796-11.812l5.704 5.503c4.216 4.069 9.765 6.31 15.623 6.31 6.074 0 11.977-2.507 16.192-6.877 4.174-4.325 6.413-10.017 6.305-16.026-.107-6.008-2.549-11.615-6.874-15.788z" fill="#ffb509"/><path d="m160.184 299.948c.778 4.069-1.89 7.997-5.958 8.774-.476.092-.949.135-1.417.135-3.527 0-6.671-2.5-7.357-6.093l-7.242-37.896c-.778-4.069 1.89-7.997 5.958-8.774 4.062-.785 7.997 1.889 8.774 5.958zm-30.514-45.235c-3.979-1.133-8.133 1.174-9.269 5.157l-5.506 19.313-5.952-20.176c-1.172-3.973-5.342-6.244-9.315-5.071-3.973 1.172-6.243 5.343-5.071 9.315l11.707 39.682c.026.09.055.179.084.267 1.251 3.723 4.721 6.215 8.645 6.215h.046c3.942-.02 7.41-2.552 8.629-6.301.028-.087.055-.175.08-.263l11.08-38.87c1.135-3.982-1.175-8.132-5.158-9.268zm-43.975-.313c-4.071-.731-7.978 1.972-8.713 6.049l-7.144 39.575c-.735 4.076 1.973 7.977 6.049 8.713.45.081.898.12 1.341.12 3.559 0 6.718-2.543 7.372-6.169l7.144-39.575c.735-4.076-1.973-7.977-6.049-8.713zm126.95 40.016h-22.442v-40.061c0-4.143-3.357-7.5-7.5-7.5s-7.5 3.357-7.5 7.5v47.561c0 4.143 3.357 7.5 7.5 7.5h29.942c4.143 0 7.5-3.357 7.5-7.5s-3.357-7.5-7.5-7.5zm-71.787-100.317-16.372-43.382c-1.462-3.875-5.788-5.831-9.665-4.368-3.875 1.462-5.831 5.789-4.368 9.665l5.896 15.624h-21.54l5.499-14.437c1.475-3.871-.469-8.204-4.339-9.679s-8.204.467-9.679 4.339l-16.079 42.216c-1.475 3.871.469 8.204 4.339 9.679.879.335 1.781.493 2.669.493 3.021 0 5.87-1.84 7.01-4.832l4.867-12.779h32.915l4.815 12.758c1.133 3.003 3.987 4.854 7.018 4.854.88 0 1.775-.156 2.647-.485 3.874-1.463 5.83-5.79 4.367-9.666zm139.685-2.749-38.829-37.461c-.397-.384-.828-.71-1.28-.989-1.347-1.998-3.631-3.311-6.222-3.311-4.143 0-7.5 3.357-7.5 7.5v39.658c0 4.143 3.357 7.5 7.5 7.5s7.5-3.357 7.5-7.5v-22.018l28.417 27.416c1.455 1.404 3.332 2.103 5.206 2.103 1.965 0 3.927-.768 5.398-2.293 2.876-2.981 2.791-7.729-.19-10.605zm-98.157 12.898c14.171 0 26.525-9.34 28.736-21.725 1.682-9.416-2.667-21.743-19.913-28.104-3.886-1.434-8.198.555-9.632 4.44-1.434 3.887.555 8.199 4.44 9.632 7.377 2.722 11.146 6.875 10.338 11.396-.821 4.602-6.271 9.361-13.97 9.361-7.534 0-14.799-3.053-19.434-8.167-2.783-3.071-7.526-3.301-10.594-.521-3.069 2.781-3.303 7.524-.521 10.594 7.432 8.198 18.852 13.094 30.55 13.094z" fill="#ffe7bf"/><path d="m154.032 267.753c.778 4.068-1.89 7.997-5.958 8.774-.476.092-.949.135-1.417.135-3.527 0-6.671-2.5-7.357-6.093l-2.549-13.335-3.959 13.888c-1.136 3.984-5.289 6.289-9.269 5.157-3.984-1.136-6.293-5.285-5.157-9.269l10.761-37.747c.024-.087.051-.173.079-.258 1.276-3.938 5.062-6.525 9.188-6.292 4.134.233 7.598 3.229 8.423 7.287zm-53.887-38.567c-.026-.089-.054-.178-.084-.266-1.317-3.925-5.13-6.483-9.256-6.196-4.132.277-7.563 3.311-8.361 7.461l-6.529 36.174c-.735 4.076 1.973 7.977 6.049 8.713.45.081.898.12 1.341.12 3.559 0 6.718-2.543 7.372-6.169l2.119-11.74 3.312 11.225c1.171 3.972 5.34 6.245 9.315 5.071 3.973-1.172 6.243-5.343 5.071-9.315zm112.5-5.832h-29.942c-4.143 0-7.5 3.357-7.5 7.5v47.001c0 4.143 3.357 7.5 7.5 7.5s7.5-3.357 7.5-7.5v-3.97h20.234c4.143 0 7.5-3.357 7.5-7.5s-3.357-7.5-7.5-7.5h-20.234v-20.531h22.442c4.143 0 7.5-3.357 7.5-7.5s-3.357-7.5-7.5-7.5zm-88.5-52.302c3.875-1.462 5.831-5.789 4.368-9.665l-14.34-37.998c-.025-.068-.053-.137-.08-.205-1.413-3.435-4.726-5.653-8.439-5.653h-.008c-3.718.004-7.03 2.229-8.438 5.67-.023.057-.046.114-.067.171l-14.402 37.814c-1.475 3.871.469 8.204 4.339 9.679 3.871 1.473 8.204-.468 9.679-4.339l8.873-23.297 8.852 23.455c1.133 3.003 3.987 4.854 7.018 4.854.878 0 1.773-.157 2.645-.486zm154.166-50.191c-2.802-3.05-7.548-3.25-10.597-.446l-26.003 23.901v-19.285c0-4.143-3.357-7.5-7.5-7.5s-7.5 3.357-7.5 7.5v44.059c0 4.143 3.357 7.5 7.5 7.5s7.5-3.357 7.5-7.5v-4.4l36.153-33.231c3.051-2.804 3.251-7.548.447-10.598zm-89.698 48.096c3.052 0 5.92-1.876 7.037-4.906 1.434-3.887-.555-8.199-4.44-9.632-9.045-3.337-17.448-6.975-19.772-7.994-1.892-1.439-2.805-3.7-2.453-6.146.222-1.544 1.321-5.311 6.731-6.939 10.897-3.278 20.848 4.64 21.087 4.832 3.169 2.637 7.878 2.219 10.535-.941 2.665-3.171 2.256-7.902-.915-10.567-.653-.548-16.188-13.356-35.033-7.687-9.349 2.816-15.96 10.162-17.253 19.171-1.209 8.418 2.438 16.515 9.517 21.13.332.217.68.406 1.041.567.413.185 10.247 4.562 21.324 8.646.856.316 1.732.466 2.594.466z" fill="#fff"/><path d="m511.326 305.153c1.629 3.705.219 8.042-3.276 10.082l-30.75 17.946c-1.927 1.124-3.293 3.005-3.767 5.185l-4.372 20.105-1.397.919-1.288 5.923c-86.838-6.537-154.065-79.066-154.065-167.576 0-12.999 1.071-23.59 3.864-35.742l4.695.471 1.973-1.905 23.092 2.318c2.219.223 4.431-.496 6.095-1.98l26.57-23.699c3.02-2.694 7.58-2.694 10.6 0l26.57 23.699c1.665 1.485 3.876 2.203 6.095 1.98l35.426-3.555c4.027-.404 7.716 2.276 8.576 6.231l7.566 34.79c.474 2.18 1.841 4.061 3.767 5.185l30.75 17.946c3.495 2.04 4.904 6.377 3.276 10.081l-14.329 32.593c-.898 2.042-.898 4.367 0 6.409z" fill="#ff5757"/><path d="m469.161 358.471-3.193 14.685c-.86 3.955-4.549 6.635-8.576 6.231l-35.426-3.555c-2.219-.223-4.43.496-6.095 1.98l-26.57 23.699c-3.02 2.694-7.58 2.694-10.601 0l-26.57-23.699c-1.665-1.485-3.876-2.204-6.095-1.98l-35.426 3.555c-4.027.404-7.716-2.276-8.576-6.231l-7.566-34.79c-.474-2.18-1.841-4.061-3.767-5.185l-30.75-17.946c-3.495-2.04-4.904-6.377-3.276-10.082l14.328-32.593c.898-2.042.898-4.367 0-6.409l-14.328-32.593c-1.629-3.705-.219-8.042 3.276-10.081l30.75-17.947c1.927-1.124 3.293-3.005 3.767-5.185l7.566-34.79c.86-3.955 4.549-6.635 8.576-6.231l12.334 1.238c-2.829 11.951-4.327 24.417-4.327 37.233-.001 85.408 66.499 155.284 150.545 160.676z" fill="#ff4343"/><path d="m395.02 345.737c0 5.799-4.701 10.5-10.5 10.5s-10.5-4.701-10.5-10.5 4.701-10.5 10.5-10.5 10.5 4.701 10.5 10.5zm-10.501-25.962c5.523 0 10-4.477 10-10v-37.732c0-5.523-4.477-10-10-10s-10 4.477-10 10v37.732c0 5.523 4.477 10 10 10z" fill="#ffe7bf"/><path d="m417.939 266.681c-8.666 9.127-20.847 14.362-33.42 14.362-5.523 0-10-4.477-10-10s4.477-10 10-10c7.219 0 13.937-2.888 18.916-8.132 4.976-5.24 7.508-12.114 7.133-19.354-.704-13.564-11.907-24.404-25.505-24.678-13.24-.292-24.554 9.376-26.376 22.428-.167 1.199-.252 2.428-.252 3.651 0 5.523-4.477 10-10 10s-10-4.477-10-10c0-2.145.149-4.303.444-6.415 3.221-23.08 23.233-40.119 46.587-39.66 24.031.484 43.831 19.652 45.075 43.637.662 12.772-3.813 24.903-12.602 34.161z" fill="#fff"/></g></svg>