<svg id="Capa_1" enable-background="new 0 0 512 512" height="512" viewBox="0 0 512 512" width="512" xmlns="http://www.w3.org/2000/svg"><g><g><g><g><path d="m257.28 145.102c4.962 0 9 4.037 9 9v101.927h70.891v-85.001c-5.616-9.351-13-17.53-21.745-24.008-19.48-14.429-31.117-37.495-31.129-61.702-.001-1.799.08-3.576.198-5.343h-131.465c-5.523 0-10 4.477-10 10v55.127z" fill="#ffe177"/></g><g><path d="m315.426 147.02c-19.48-14.429-31.117-37.495-31.129-61.702-.001-1.799.08-3.576.198-5.343h-31.03c-.118 1.767-.199 3.544-.198 5.343.012 24.207 11.648 47.273 31.129 61.702 5.963 4.417 11.293 9.624 15.861 15.455 3.81 4.863 5.884 10.863 5.884 17.041v76.514h31.03v-85.001c-5.616-9.352-13-17.531-21.745-24.009z" fill="#ffd15b"/></g></g><g><g><path d="m380.56 255.029h-114.28v249.471h119.28c2.761 0 5-2.239 5-5v-234.471c0-5.523-4.477-10-10-10z" fill="#60b7ff"/></g><g><path d="m380.56 255.029h-41.56c5.523 0 10 4.477 10 10v239.471h36.56c2.761 0 5-2.239 5-5v-234.471c0-5.523-4.477-10-10-10z" fill="#26a6fe"/></g><g><path d="m353.527 295.799h-87.247v36.887h87.246c2.761 0 5-2.239 5-5v-26.887c.001-2.762-2.238-5-4.999-5z" fill="#fff"/></g><g><path d="m353.527 295.799h-31.486c2.761 0 5 2.239 5 5v26.887c0 2.761-2.239 5-5 5h31.486c2.761 0 5-2.239 5-5v-26.887c0-2.762-2.239-5-5-5z" fill="#f9f3f1"/></g><g><path d="m353.527 364.719h-87.247v36.887h87.246c2.761 0 5-2.239 5-5v-26.887c.001-2.762-2.238-5-4.999-5z" fill="#fff"/></g><g><path d="m353.527 364.719h-31.486c2.761 0 5 2.239 5 5v26.887c0 2.761-2.239 5-5 5h31.486c2.761 0 5-2.239 5-5v-26.887c0-2.762-2.239-5-5-5z" fill="#f9f3f1"/></g><g><path d="m353.527 433.639h-87.247v36.887h87.246c2.761 0 5-2.239 5-5v-26.887c.001-2.762-2.238-5-4.999-5z" fill="#fff"/></g><g><path d="m353.527 433.639h-31.486c2.761 0 5 2.239 5 5v26.887c0 2.761-2.239 5-5 5h31.486c2.761 0 5-2.239 5-5v-26.887c0-2.762-2.239-5-5-5z" fill="#f9f3f1"/></g></g><g><g><g><path d="m267.28 504.5h-189.14c-2.761 0-5-2.239-5-5v-345.397c0-5.523 4.477-10 10-10h174.14c5.523 0 10 4.477 10 10z" fill="#cdbfba"/></g><g><path d="m257.28 144.103h-41.28c5.523 0 10 4.477 10 10v350.397h41.28v-350.397c0-5.523-4.477-10-10-10z" fill="#b9acac"/></g><g><path d="m231.394 504.5h-122.368v-66.586c0-2.761 2.239-5 5-5h112.367c2.761 0 5 2.239 5 5v66.586z" fill="#fff"/></g><g><path d="m147.855 432.914h44.711v71.586h-44.711z" fill="#f3eae6"/></g><g><path d="m171.711 432.914h20.855v71.586h-20.855z" fill="#efe2dd"/></g><g><g><path d="m148.738 230.499h-34.711c-2.761 0-5-2.239-5-5v-36.901c0-2.761 2.239-5 5-5h34.711c2.761 0 5 2.239 5 5v36.901c0 2.762-2.239 5-5 5z" fill="#f3eae6"/></g><g><path d="m148.738 183.598h-20.738c2.761 0 5 2.239 5 5v36.901c0 2.761-2.239 5-5 5h20.738c2.761 0 5-2.239 5-5v-36.901c0-2.761-2.239-5-5-5z" fill="#efe2dd"/></g><g><path d="m226.394 230.499h-34.711c-2.761 0-5-2.239-5-5v-36.901c0-2.761 2.239-5 5-5h34.711c2.761 0 5 2.239 5 5v36.901c0 2.762-2.239 5-5 5z" fill="#f3eae6"/></g><g><path d="m226.394 183.598h-20.683c2.761 0 5 2.239 5 5v36.901c0 2.761-2.239 5-5 5h20.683c2.761 0 5-2.239 5-5v-36.901c0-2.761-2.239-5-5-5z" fill="#efe2dd"/></g></g><g><g><path d="m148.738 314.427h-34.711c-2.761 0-5-2.239-5-5v-36.901c0-2.761 2.239-5 5-5h34.711c2.761 0 5 2.239 5 5v36.901c0 2.762-2.239 5-5 5z" fill="#f3eae6"/></g><g><path d="m148.738 267.526h-20.738c2.761 0 5 2.239 5 5v36.901c0 2.761-2.239 5-5 5h20.738c2.761 0 5-2.239 5-5v-36.901c0-2.761-2.239-5-5-5z" fill="#efe2dd"/></g><g><path d="m226.394 314.427h-34.711c-2.761 0-5-2.239-5-5v-36.901c0-2.761 2.239-5 5-5h34.711c2.761 0 5 2.239 5 5v36.901c0 2.762-2.239 5-5 5z" fill="#f3eae6"/></g><g><path d="m226.394 267.526h-20.683c2.761 0 5 2.239 5 5v36.901c0 2.761-2.239 5-5 5h20.683c2.761 0 5-2.239 5-5v-36.901c0-2.761-2.239-5-5-5z" fill="#efe2dd"/></g></g><g><g><path d="m148.738 398.356h-34.711c-2.761 0-5-2.239-5-5v-36.901c0-2.761 2.239-5 5-5h34.711c2.761 0 5 2.239 5 5v36.901c0 2.761-2.239 5-5 5z" fill="#f3eae6"/></g><g><path d="m148.738 351.455h-20.738c2.761 0 5 2.239 5 5v36.901c0 2.761-2.239 5-5 5h20.738c2.761 0 5-2.239 5-5v-36.901c0-2.762-2.239-5-5-5z" fill="#efe2dd"/></g><g><path d="m226.394 398.356h-34.711c-2.761 0-5-2.239-5-5v-36.901c0-2.761 2.239-5 5-5h34.711c2.761 0 5 2.239 5 5v36.901c0 2.761-2.239 5-5 5z" fill="#f3eae6"/></g><g><path d="m226.394 351.455h-20.683c2.761 0 5 2.239 5 5v36.901c0 2.761-2.239 5-5 5h20.683c2.761 0 5-2.239 5-5v-36.901c0-2.762-2.239-5-5-5z" fill="#efe2dd"/></g></g></g></g></g><g><g><path d="m438.86 85.282c0-43.535-35.767-78.717-79.519-77.763-42.515.927-76.064 35.275-76.044 77.8.012 25.62 12.411 48.343 31.534 62.506 11.699 8.665 20.848 20.32 26.598 33.695l15.184 35.324c1.686 3.922 7.247 3.922 8.932 0l15.181-35.318c5.689-13.235 14.608-24.925 26.235-33.432 19.339-14.151 31.899-37.014 31.899-62.812z" fill="#fe646f"/></g><g><path d="m369.647 7.992c22.707 13.583 37.916 38.406 37.916 66.79 0 25.798-12.56 48.662-31.899 62.812-11.627 8.507-20.546 20.196-26.235 33.432l-6.256 14.553 13.439 31.264c1.686 3.922 7.247 3.922 8.932 0l15.182-35.318c5.689-13.236 14.608-24.925 26.235-33.432 19.339-14.15 31.899-37.013 31.899-62.812 0-40.059-30.291-73.02-69.213-77.289z" fill="#fd4755"/></g><g><circle cx="361.079" cy="85.282" fill="#fff" r="34.37"/></g><g><path d="m361.079 50.912c-4.88 0-9.519 1.023-13.724 2.857 12.149 5.299 20.645 17.411 20.645 31.512s-8.496 26.213-20.645 31.512c4.205 1.834 8.844 2.857 13.724 2.857 18.982 0 34.37-15.388 34.37-34.37s-15.389-34.368-34.37-34.368z" fill="#f9f3f1"/></g></g><g><path d="m186.227 106.717h-11.648c-4.142 0-7.5 3.357-7.5 7.5s3.358 7.5 7.5 7.5h11.648c4.142 0 7.5-3.357 7.5-7.5s-3.358-7.5-7.5-7.5z"/><path d="m226.025 106.717h-11.648c-4.142 0-7.5 3.357-7.5 7.5s3.358 7.5 7.5 7.5h11.648c4.142 0 7.5-3.357 7.5-7.5s-3.358-7.5-7.5-7.5z"/><path d="m273.324 114.217c0-4.143-3.358-7.5-7.5-7.5h-11.648c-4.142 0-7.5 3.357-7.5 7.5s3.358 7.5 7.5 7.5h11.648c4.142 0 7.5-3.358 7.5-7.5z"/><path d="m293.975 197.432h11.648c4.142 0 7.5-3.357 7.5-7.5s-3.358-7.5-7.5-7.5h-11.648c-4.142 0-7.5 3.357-7.5 7.5s3.358 7.5 7.5 7.5z"/><path d="m293.975 235.289h11.648c4.142 0 7.5-3.357 7.5-7.5s-3.358-7.5-7.5-7.5h-11.648c-4.142 0-7.5 3.357-7.5 7.5s3.358 7.5 7.5 7.5z"/><path d="m114.026 237.999h34.711c6.893 0 12.5-5.607 12.5-12.5v-36.9c0-6.893-5.607-12.5-12.5-12.5h-34.711c-6.893 0-12.5 5.607-12.5 12.5v36.9c0 6.893 5.608 12.5 12.5 12.5zm2.5-46.9h29.711v31.9h-29.711z"/><path d="m191.683 237.999h34.711c6.893 0 12.5-5.607 12.5-12.5v-36.9c0-6.893-5.607-12.5-12.5-12.5h-34.711c-6.893 0-12.5 5.607-12.5 12.5v36.9c0 6.893 5.607 12.5 12.5 12.5zm2.5-46.9h29.711v31.9h-29.711z"/><path d="m101.526 309.428c0 6.893 5.607 12.5 12.5 12.5h34.711c6.893 0 12.5-5.607 12.5-12.5v-36.901c0-6.893-5.607-12.5-12.5-12.5h-34.711c-6.893 0-12.5 5.607-12.5 12.5zm15-34.402h29.711v31.901h-29.711z"/><path d="m179.183 309.428c0 6.893 5.607 12.5 12.5 12.5h34.711c6.893 0 12.5-5.607 12.5-12.5v-36.901c0-6.893-5.607-12.5-12.5-12.5h-34.711c-6.893 0-12.5 5.607-12.5 12.5zm15-34.402h29.711v31.901h-29.711z"/><path d="m101.526 393.355c0 6.893 5.607 12.5 12.5 12.5h34.711c6.893 0 12.5-5.607 12.5-12.5v-36.901c0-6.893-5.607-12.5-12.5-12.5h-34.711c-6.893 0-12.5 5.607-12.5 12.5zm15-34.401h29.711v31.901h-29.711z"/><path d="m179.183 393.355c0 6.893 5.607 12.5 12.5 12.5h34.711c6.893 0 12.5-5.607 12.5-12.5v-36.901c0-6.893-5.607-12.5-12.5-12.5h-34.711c-6.893 0-12.5 5.607-12.5 12.5zm15-34.401h29.711v31.901h-29.711z"/><path d="m420.717 24.319c-16.532-16.174-38.379-24.797-61.54-24.299-18.176.396-35.371 6.356-49.724 17.235-3.301 2.503-3.949 7.207-1.447 10.508s7.207 3.948 10.507 1.447c11.819-8.959 25.994-13.867 40.991-14.194 19.098-.427 37.099 6.695 50.722 20.024 13.628 13.334 21.134 31.176 21.134 50.239 0 22.333-10.777 43.552-28.828 56.76-12.404 9.074-22.328 21.704-28.696 36.522l-12.758 29.679-12.76-29.685c-6.297-14.648-16.333-27.36-29.024-36.761-18.1-13.405-28.487-33.992-28.498-56.482-.005-11.146 2.498-21.805 7.44-31.678 1.854-3.704.354-8.21-3.35-10.064-3.705-1.854-8.21-.354-10.063 3.35-4.066 8.122-6.767 16.679-8.085 25.555h-123.708c-9.649 0-17.5 7.851-17.5 17.5v46.627h-52.39c-9.649 0-17.5 7.851-17.5 17.5v203.898c0 4.143 3.358 7.5 7.5 7.5s7.5-3.357 7.5-7.5v-203.898c0-1.379 1.122-2.5 2.5-2.5h174.14c1.378 0 2.5 1.121 2.5 2.5v342.898h-20.886v-59.086c0-6.893-5.607-12.5-12.5-12.5h-112.368c-6.893 0-12.5 5.607-12.5 12.5v59.086h-20.886v-104c0-4.143-3.358-7.5-7.5-7.5s-7.5 3.357-7.5 7.5v106.5c0 6.893 5.607 12.5 12.5 12.5h307.42c6.893 0 12.5-5.607 12.5-12.5v-234.471c0-9.649-7.851-17.5-17.5-17.5h-35.889v-39.477l5.051 11.751c1.953 4.544 6.411 7.479 11.356 7.479s9.403-2.936 11.356-7.479l15.182-35.317c5.311-12.356 13.531-22.848 23.772-30.341 21.897-16.022 34.971-41.767 34.971-68.865.001-23.132-9.106-44.781-25.642-60.961zm-163.437 112.283h-106.75v-46.626c0-1.379 1.122-2.5 2.5-2.5h122.8c.559 21.394 9.267 41.834 23.988 57.099h-5.844c-4.142 0-7.5 3.357-7.5 7.5s3.358 7.5 7.5 7.5h11.648c2.95 0 5.495-1.707 6.72-4.184 6.876 5.468 12.747 12.131 17.328 19.667v72.471h-54.89v-93.426c0-9.65-7.85-17.501-17.5-17.501zm17.5 235.617h76.246v21.887h-76.246zm0 68.92h76.246v21.887h-76.246zm-158.254-.725h23.828v56.586h-23.828zm38.828 56.586v-56.586h29.711v56.586zm44.712 0v-56.586h23.828v56.586zm182.994-231.971v231.971h-108.28v-18.975h78.746c6.893 0 12.5-5.607 12.5-12.5v-26.887c0-6.893-5.607-12.5-12.5-12.5h-78.746v-17.033h78.746c6.893 0 12.5-5.607 12.5-12.5v-26.887c0-6.893-5.607-12.5-12.5-12.5h-78.746v-17.033h9.22c4.142 0 7.5-3.357 7.5-7.5s-3.358-7.5-7.5-7.5h-9.22v-21.887h76.246v21.887h-32.026c-4.142 0-7.5 3.357-7.5 7.5s3.358 7.5 7.5 7.5h34.526c6.893 0 12.5-5.607 12.5-12.5v-26.887c0-6.893-5.607-12.5-12.5-12.5h-78.746v-25.77h105.78c1.378.001 2.5 1.122 2.5 2.501z"/><path d="m361.079 127.151c23.087 0 41.87-18.783 41.87-41.87s-18.783-41.869-41.87-41.869-41.87 18.782-41.87 41.869 18.783 41.87 41.87 41.87zm0-68.739c14.816 0 26.87 12.054 26.87 26.869 0 14.816-12.054 26.87-26.87 26.87s-26.87-12.054-26.87-26.87c0-14.815 12.054-26.869 26.87-26.869z"/></g></g></svg>