<svg id="Icons" height="512" viewBox="0 0 60 60" width="512" xmlns="http://www.w3.org/2000/svg"><path d="m31 41h1.04a10.912 10.912 0 0 1 5.98 1.77l4.98 15.04v.28a.913.913 0 0 1 -.91.91h-40.18a.913.913 0 0 1 -.91-.91v-6.13a10.951 10.951 0 0 1 10.96-10.96z" fill="#295474"/><path d="m31 41s.4 15.261-5 18h-8c-5.4-1.826-5-18-5-18z" fill="#fff"/><path d="m27 34v8h-10v-7.975z" fill="#e2ac7f"/><path d="m37 12.87v5.13l-1 1h-28l-1-1v-4.22a12.958 12.958 0 0 1 13.13-12.78h9.93a1.247 1.247 0 0 1 1.1 1.88l-.78 1.12-1.38 2a8.85 8.85 0 0 1 5.55 1.92 6.348 6.348 0 0 1 2.45 4.95z" fill="#8e6852"/><path d="m22 42a5.043 5.043 0 0 0 -4.5 3.87s-4.5-1.22-4.5-4.87c.9-1.83 4-2 4-2s.5 2.09 5 3z" fill="#d6dbe3"/><path d="m31 41c0 3.65-4.5 4.87-4.5 4.87a5.043 5.043 0 0 0 -4.5-3.87c4.5-.91 5-3 5-3s3.1.17 4 2z" fill="#d6dbe3"/><path d="m25.99 44.56-1.99 2.44h-4l-1.99-2.44a5.2 5.2 0 0 1 3.99-2.56 5.2 5.2 0 0 1 3.99 2.56z" fill="#ec3a48"/><path d="m26 59-2-12h-4l-2 12z" fill="#d92936"/><path d="m37 18v.48c0 2.25 0 3.55-.88 5.31a3.1 3.1 0 0 1 -2.04 1.66.9.9 0 0 0 -.63.82 11.474 11.474 0 0 1 -22.9 0 .9.9 0 0 0 -.63-.82 3.1 3.1 0 0 1 -2.04-1.66c-.88-1.76-.88-3.06-.88-5.31v-.48a2.006 2.006 0 0 1 2-2 2.015 2.015 0 0 1 2 2v-1.07a1.823 1.823 0 0 1 1.65-1.81c2.19-.21 5.77-.45 8.16-2.64a1.85 1.85 0 0 1 2.47-.02c1.38 1.21 3.71 2.35 8 2.69a1.84 1.84 0 0 1 1.72 1.81v1.04a2.006 2.006 0 0 1 2-2 2.015 2.015 0 0 1 2 2z" fill="#eebd91"/><path d="m49.7 33c5.3 1.467 9.325 9.8 9.3 15.228a11 11 0 0 1 -22-.12c.026-5.4 4.07-13.613 9.316-15.1z" fill="#ad6128"/><path d="m52.93 27.39-2.4 5.61h-5.06l-3.37-7.59a1 1 0 0 1 .91-1.41h2.28a1 1 0 0 1 .95.68l.44 1.32h5.33a1 1 0 0 1 .92 1.39z" fill="#ad6128"/><path d="m41.008 45.192a.986.986 0 0 1 -.417-.053 1 1 0 0 1 -.61-1.277c1.241-3.505 3.3-6.39 5.5-7.72a1 1 0 0 1 1.032 1.714c-1.793 1.081-3.575 3.637-4.649 6.673a1 1 0 0 1 -.856.663z" fill="#c97a45"/><path d="m30.38 4-1.38 2h-4a1 1 0 0 1 0-2z" fill="#7f5b49"/><path d="m48.6 28.64a1.115 1.115 0 0 1 -.31.05 1.006 1.006 0 0 1 -.95-.69l-.66-2h2.11l.45 1.37a1.008 1.008 0 0 1 -.64 1.27z" fill="#965123"/><g fill="#6d4122"><path d="m51.01 48a3 3 0 0 0 -3-3 1 1 0 1 1 .867-1.5 1 1 0 0 0 1.73-1 2.991 2.991 0 0 0 -1.6-1.3v-.2a1 1 0 0 0 -2 0v.184a2.993 2.993 0 0 0 1 5.816 1 1 0 1 1 -.866 1.5 1 1 0 0 0 -1.731 1 2.991 2.991 0 0 0 1.6 1.3v.2a1 1 0 0 0 2 0v-.184a3 3 0 0 0 2-2.816z"/><path d="m54.01 34h-12a1 1 0 1 1 0-2h12a1 1 0 0 1 0 2z"/></g></svg>