<svg id="Layer_1" enable-background="new 0 0 512 512" height="512" viewBox="0 0 512 512" width="512" xmlns="http://www.w3.org/2000/svg"><g clip-rule="evenodd" fill-rule="evenodd"><g><g><path d="m45.713 31h82.569c6.865 0 12.481 5.616 12.481 12.481v82.569c0 6.865-5.616 12.481-12.481 12.481h-82.569c-6.865 0-12.481-5.616-12.481-12.481v-82.569c0-6.865 5.616-12.481 12.481-12.481z" fill="#b9ea6a"/><path d="m130.553 31.209c5.79 1.076 10.21 6.182 10.21 12.272v82.569c0 6.865-5.616 12.481-12.481 12.481h-82.569c-6.089 0-11.196-4.419-12.272-10.21.737.137 1.496.209 2.271.209h82.569c6.865 0 12.481-5.616 12.481-12.481v-82.569c.001-.775-.072-1.534-.209-2.271z" fill="#a1e42c"/></g><g><path d="m45.713 202.234h82.569c6.865 0 12.481 5.616 12.481 12.481v82.569c0 6.865-5.616 12.481-12.481 12.481h-82.569c-6.865 0-12.481-5.617-12.481-12.481v-82.569c0-6.864 5.616-12.481 12.481-12.481z" fill="#fcdd2e"/><path d="m130.553 202.444c5.79 1.076 10.21 6.182 10.21 12.272v82.569c0 6.865-5.616 12.481-12.481 12.481h-82.569c-6.089 0-11.196-4.419-12.272-10.21.737.137 1.496.209 2.271.209h82.569c6.865 0 12.481-5.616 12.481-12.481v-82.569c.001-.775-.072-1.534-.209-2.271z" fill="#fbd307"/></g><g><path d="m45.713 373.469h82.569c6.865 0 12.481 5.616 12.481 12.481v82.569c0 6.865-5.616 12.481-12.481 12.481h-82.569c-6.865 0-12.481-5.616-12.481-12.481v-82.569c0-6.865 5.616-12.481 12.481-12.481z" fill="#fc5692"/><path d="m130.553 373.678c5.79 1.076 10.21 6.182 10.21 12.272v82.569c0 6.865-5.616 12.481-12.481 12.481h-82.569c-6.089 0-11.196-4.419-12.272-10.21.737.137 1.496.209 2.271.209h82.569c6.865 0 12.481-5.616 12.481-12.481v-82.569c.001-.775-.072-1.534-.209-2.271z" fill="#fb3580"/></g></g><path d="m490.745 463.049c0 6.63-5.372 12.002-11.969 12.002h-277.086c-6.644 0-12.017-5.372-12.017-12.002s5.372-11.998 12.017-11.998h277.086c6.597 0 11.969 5.367 11.969 11.998zm0-71.628c0 6.63-5.372 11.997-11.969 11.997h-277.086c-6.644 0-12.017-5.367-12.017-11.997 0-6.631 5.372-12.003 12.017-12.003h277.086c6.597.001 11.969 5.373 11.969 12.003zm0-171.242c0 6.63-5.372 12.002-11.969 12.002h-277.086c-6.644 0-12.017-5.372-12.017-12.002 0-6.621 5.372-12.003 12.017-12.003h277.086c6.597.001 11.969 5.382 11.969 12.003zm0 71.642c0 6.621-5.372 11.998-11.969 11.998h-277.086c-6.644 0-12.017-5.377-12.017-11.998 0-6.63 5.372-12.003 12.017-12.003h277.086c6.597.001 11.969 5.373 11.969 12.003zm-361.955 176.699c0 .24-.236.481-.518.481h-82.56c-.236 0-.471-.24-.471-.481v-82.57c0-.24.236-.481.471-.481h82.56c.283 0 .518.24.518.481zm-.518-107.051h-82.56c-13.477 0-24.457 10.98-24.457 24.481v82.57c0 13.501 10.98 24.48 24.457 24.48h82.56c13.524 0 24.504-10.98 24.504-24.48v-82.57c0-13.501-10.98-24.481-24.504-24.481zm.518-64.191c0 .24-.236.495-.518.495h-82.56c-.236 0-.471-.255-.471-.495v-82.57c0-.226.236-.48.471-.48h82.56c.283 0 .518.254.518.48zm-.518-107.05h-82.56c-13.477 0-24.457 10.994-24.457 24.481v82.57c0 13.501 10.98 24.495 24.457 24.495h82.56c13.524 0 24.504-10.994 24.504-24.495v-82.57c0-13.488-10.98-24.481-24.504-24.481zm362.473-69.649c0 6.63-5.372 11.998-11.969 11.998h-277.086c-6.644 0-12.017-5.367-12.017-11.998 0-6.63 5.372-11.998 12.017-11.998h277.086c6.597.001 11.969 5.368 11.969 11.998zm-301.071-71.627c0-6.63 5.372-12.002 12.017-12.002h277.086c6.597 0 11.969 5.372 11.969 12.002s-5.372 11.998-11.969 11.998h-277.087c-6.644-.001-12.016-5.368-12.016-11.998zm-60.884 77.098c0 .24-.236.481-.518.481h-82.56c-.236 0-.471-.24-.471-.481v-82.57c0-.24.236-.48.471-.48h82.56c.283 0 .518.24.518.48zm-.518-107.05h-82.56c-13.477 0-24.457 10.98-24.457 24.481v82.57c0 13.501 10.98 24.481 24.457 24.481h82.56c13.524 0 24.504-10.98 24.504-24.481v-82.57c0-13.501-10.98-24.481-24.504-24.481z"/></g></svg>