<svg id="Layer_1" height="512" viewBox="0 0 512 512" width="512" xmlns="http://www.w3.org/2000/svg" data-name="Layer 1"><path d="m387.317 22.452c-2.729.399-5.265-1.49-5.664-4.219s1.49-5.265 4.219-5.664l26.838-3.93c2.729-.399 5.265 1.49 5.664 4.219.077.525.069 1.043-.014 1.54l-3.915 26.743c-.399 2.729-2.935 4.618-5.664 4.219s-4.618-2.935-4.219-5.664l1.745-11.919-107.484 107.485-.009-.009c-1.609 1.612-4.173 1.957-6.182.693l-64.97-40.834-80.269 79.287c-1.963 1.931-5.12 1.904-7.051-.059s-1.904-5.12.059-7.051l83.072-82.056c1.709-1.681 4.323-1.878 6.245-.605l64.844 40.755 104.676-104.677-11.921 1.745z" fill="#7986bf" fill-rule="evenodd"/><path d="m204.11 137.969h45.719v178.662h-45.719z" fill="#fdc72e"/><path d="m124.041 201.046h45.718v115.584h-45.718z" fill="#fb545c"/><path d="m284.179 155.859h45.718v160.771h-45.718z" fill="#5caeff"/><path d="m364.248 91.824h45.719v224.806h-45.719z" fill="#2dd62d"/><path d="m58.261 23.482h21.038v316.334h374.44v21.038h-395.478z" fill="#7986bf" fill-rule="evenodd"/><path d="m124.041 201.046h13.803v115.584h-13.803z" fill="#f0414a"/><path d="m204.11 137.969h13.803v178.661h-13.803z" fill="#f9ac00"/><path d="m284.179 155.859h13.803v160.771h-13.803z" fill="#2a92fa"/><path d="m364.248 91.824h13.803v224.806h-13.803z" fill="#29b933"/><g><path d="m310.139 399.686h23.58v54.671h-23.58z" fill="#7986bf" transform="matrix(.707 -.707 .707 .707 -207.659 352.708)"/><path d="m312.412 405.173h8.061v54.671h-8.061z" fill="#6a75ad" transform="matrix(.707 -.707 .707 .707 -213.146 350.437)"/><circle cx="243.223" cy="348.316" fill="#acace8" r="99.902"/><g fill-rule="evenodd"><path d="m245.678 248.446c54.04 1.303 97.447 45.517 97.447 99.87s-43.407 98.567-97.447 99.87c-54.04-1.303-97.447-45.517-97.447-99.87s43.408-98.567 97.447-99.87zm2.454 23.548c-.822 0-1.639.018-2.454.043-.816-.026-1.633-.043-2.454-.043-42.152 0-76.322 34.17-76.322 76.322s34.171 76.322 76.322 76.322c.822 0 1.639-.018 2.454-.044.816.026 1.633.044 2.454.044 42.152 0 76.323-34.171 76.323-76.322s-34.171-76.322-76.323-76.322z" fill="#cfcfff"/><path d="m393.389 474.567-45.567-45.567c-3.177-3.177-8.36-3.177-11.537 0l-12.377 12.377c-3.177 3.177-3.177 8.36 0 11.537l45.567 45.567c6.577 6.577 17.337 6.577 23.914 0s6.577-17.337 0-23.914z" fill="#3d4a75"/><path d="m327.459 437.826-3.552 3.552c-3.177 3.177-3.177 8.36 0 11.537l45.567 45.567c5.671 5.671 14.454 6.451 20.982 2.341z" fill="#323e66"/></g><circle cx="243.223" cy="348.316" fill="#f3f3ff" r="76.322"/></g></svg>